<svg width="1608" height="1401" viewBox="0 0 1608 1401" fill="none" xmlns="http://www.w3.org/2000/svg">
<path d="M1503.92 14.8447C1553.11 14.8448 1592.99 54.7225 1592.99 103.914V1386.01H1371.66V1002.73H236.174V1386.01H14.845V700.429C14.845 606.535 32.4616 518.296 67.7883 435.867C102.995 352.44 151.936 279.329 214.595 216.652C277.268 152.683 349.778 103.041 432.035 67.7881L432.073 67.7715L432.113 67.7549C515.772 32.461 604.618 14.8448 698.513 14.8447H1503.92ZM698.513 236.174C614.245 236.174 537.033 257.205 466.568 299.236L466.485 299.285L466.401 299.334C395.815 340.199 339.525 395.847 297.377 466.471C256.616 536.905 236.174 614.785 236.174 700.429V918.653L490.454 783.148L493.727 781.404H1371.66V236.174H698.513Z" fill="url(#paint0_linear_208_84)" stroke="url(#paint1_linear_208_84)" stroke-width="29.6898"/>
<defs>
<linearGradient id="paint0_linear_208_84" x1="1578.14" y1="700.429" x2="29.6897" y2="700.429" gradientUnits="userSpaceOnUse">
<stop stop-color="#115AF8"/>
<stop offset="1" stop-color="#4E24E8"/>
</linearGradient>
<linearGradient id="paint1_linear_208_84" x1="1578.14" y1="700.429" x2="29.6897" y2="700.429" gradientUnits="userSpaceOnUse">
<stop stop-color="#115AF8"/>
<stop offset="1" stop-color="#4E24E8"/>
</linearGradient>
</defs>
</svg>
