<svg width="6201" height="918" viewBox="0 0 6201 918" fill="none" xmlns="http://www.w3.org/2000/svg">
<path d="M4338.89 10.4795C4371.07 10.4795 4397.17 36.5696 4397.17 68.7529V907.561H4252.36V656.802H3509.48V907.561H3364.67V459.021C3364.67 397.591 3376.2 339.861 3399.31 285.933C3422.35 231.347 3454.37 183.512 3495.37 142.504C3536.37 100.656 3583.81 68.1799 3637.62 45.1172L3637.67 45.0957C3692.4 22.0049 3750.53 10.4795 3811.96 10.4795H4338.89ZM983.93 10.4473C1016.11 10.4474 1042.2 36.5366 1042.2 68.7197V907.528H897.398V656.769H154.516V907.528H9.71191V458.987C9.71193 397.557 21.2372 339.828 44.3496 285.899C67.3922 231.297 99.427 183.449 140.443 142.433C181.436 100.604 228.86 68.1405 282.656 45.085L282.707 45.0635C337.441 21.9727 395.568 10.4473 456.998 10.4473H983.93ZM2160.34 10.4473C2192.53 10.4473 2218.62 36.5365 2218.62 68.7197V155.251H1774.77V907.528H1629.97V155.251H1186.12V68.7197C1186.13 36.5366 1212.21 10.4475 1244.4 10.4473H2160.34ZM2507.34 10.4473V762.725H3220.75V907.528H2420.81C2388.63 907.528 2362.54 881.438 2362.54 849.255V10.4473H2507.34ZM5510.89 10.4346V155.238H4801.56C4769.96 155.238 4742.73 166.683 4719.41 190.008C4696.99 212.427 4685.89 239.212 4685.89 270.905C4685.89 302.554 4696.96 329.781 4719.41 353.056C4742.68 375.503 4769.91 386.573 4801.56 386.573H5313.11C5361.55 386.573 5405.51 398.275 5444.74 421.81C5483.74 445.213 5514.97 476.878 5538.34 516.668L5539.44 518.508C5562.22 557.226 5573.58 600.144 5573.58 647.044C5573.58 694.689 5561.86 738.606 5538.39 778.594L5538.37 778.635L5538.34 778.675C5514.95 817.656 5483.72 848.891 5444.74 872.279C5405.51 895.814 5361.55 907.516 5313.11 907.516H4603.7V762.712H5313.11C5345.67 762.712 5372.83 751.59 5395.18 729.27C5417.68 705.978 5428.77 678.727 5428.77 647.044C5428.77 615.35 5417.68 588.565 5395.26 566.146L5395.2 566.088L5395.14 566.028C5372.75 542.86 5345.6 531.377 5313.11 531.377H4801.56C4753.91 531.377 4710 519.659 4670.01 496.188L4669.97 496.164L4669.93 496.141C4630.95 472.752 4599.71 441.517 4576.32 402.536L4576.3 402.495L4576.28 402.455C4552.81 362.467 4541.09 318.55 4541.09 270.905C4541.09 223.293 4552.79 179.786 4576.28 140.609C4599.65 100.782 4630.9 69.0898 4669.93 45.6709L4669.97 45.6465L4670.01 45.623C4710 22.1518 4753.91 10.4346 4801.56 10.4346H5510.89ZM3811.96 155.284C3756.83 155.284 3706.31 169.043 3660.21 196.542L3660.16 196.574L3660.1 196.605C3613.92 223.342 3577.09 259.75 3549.52 305.956C3522.85 352.037 3509.48 402.989 3509.48 459.021V601.793L3675.84 513.139L3677.98 511.998H4252.36V155.284H3811.96ZM456.998 155.251C401.866 155.251 351.35 169.01 305.249 196.509L305.195 196.541L305.14 196.573C258.964 223.307 222.139 259.71 194.565 305.908C167.892 351.993 154.516 402.95 154.516 458.987V601.76L320.877 513.106L323.019 511.965H897.398V155.251H456.998Z" fill="url(#paint0_linear_206_49)" stroke="url(#paint1_linear_206_49)" stroke-width="19.4244"/>
<defs>
<linearGradient id="paint0_linear_206_49" x1="19.4238" y1="458.998" x2="5563.87" y2="458.998" gradientUnits="userSpaceOnUse">
<stop stop-color="#4E24E8"/>
<stop offset="1" stop-color="#115AF8"/>
</linearGradient>
<linearGradient id="paint1_linear_206_49" x1="19.4238" y1="458.998" x2="5563.87" y2="458.998" gradientUnits="userSpaceOnUse">
<stop stop-color="#4E24E8"/>
<stop offset="1" stop-color="#115AF8"/>
</linearGradient>
</defs>
</svg>
