<svg width="6201" height="918" viewBox="0 0 6201 918" fill="none" xmlns="http://www.w3.org/2000/svg">
<path d="M4338.89 10.4785C4371.08 10.4785 4397.17 36.5686 4397.17 68.752V907.56H4252.36V656.801H3509.48V907.56H3364.67V459.02C3364.67 397.59 3376.2 339.861 3399.31 285.932C3422.34 231.361 3454.35 183.536 3495.34 142.535C3536.34 100.672 3583.79 68.1849 3637.62 45.1162L3637.67 45.0947C3692.4 22.0039 3750.53 10.4785 3811.96 10.4785H4338.89ZM983.931 10.4463C1016.11 10.4464 1042.2 36.5356 1042.2 68.7188V907.527H897.399V656.768H154.517V907.527H9.71289V458.986C9.71291 397.557 21.2382 339.827 44.3506 285.898C67.3932 231.296 99.428 183.448 140.444 142.432C181.437 100.603 228.861 68.1395 282.657 45.084L282.708 45.0625C337.442 21.9717 395.569 10.4463 456.999 10.4463H983.931ZM2160.34 10.4463C2192.53 10.4463 2218.62 36.5355 2218.62 68.7188V155.25H1774.77V907.527H1629.97V155.25H1186.13V68.7188C1186.13 36.5357 1212.22 10.4465 1244.4 10.4463H2160.34ZM2507.34 10.4463V762.724H3220.75V907.527H2420.81C2388.63 907.527 2362.54 881.437 2362.54 849.254V10.4463H2507.34ZM5510.89 10.4336V155.237H4801.56C4769.96 155.237 4742.73 166.682 4719.41 190.007C4696.99 212.426 4685.89 239.211 4685.89 270.904C4685.89 302.553 4696.96 329.78 4719.41 353.055C4742.68 375.502 4769.91 386.572 4801.56 386.572H5313.11C5361.55 386.572 5405.51 398.274 5444.74 421.809C5483.74 445.212 5514.97 476.877 5538.34 516.667L5539.44 518.507C5562.22 557.225 5573.58 600.143 5573.58 647.043C5573.58 694.687 5561.86 738.605 5538.39 778.593L5538.37 778.634L5538.34 778.674C5514.95 817.655 5483.72 848.89 5444.74 872.278C5405.51 895.813 5361.55 907.515 5313.11 907.515H4603.7V762.711H5313.11C5345.68 762.711 5372.84 751.584 5395.2 729.252C5417.69 705.965 5428.78 678.718 5428.78 647.043C5428.78 615.349 5417.68 588.564 5395.26 566.145L5395.2 566.087L5395.14 566.027C5372.75 542.859 5345.6 531.376 5313.11 531.376H4801.56C4753.91 531.376 4710 519.658 4670.01 496.187L4669.97 496.163L4669.93 496.14C4630.95 472.751 4599.71 441.516 4576.33 402.535L4576.3 402.494L4576.28 402.454C4552.81 362.466 4541.09 318.549 4541.09 270.904C4541.09 223.292 4552.79 179.785 4576.28 140.608C4599.65 100.781 4630.9 69.0889 4669.93 45.6699L4669.97 45.6455L4670.01 45.6221C4710 22.1508 4753.91 10.4337 4801.56 10.4336H5510.89ZM3811.96 155.283C3756.83 155.283 3706.31 169.042 3660.21 196.541L3660.16 196.573L3660.1 196.604C3613.92 223.341 3577.09 259.749 3549.52 305.955C3522.85 352.036 3509.48 402.989 3509.48 459.02V601.792L3675.84 513.138L3677.98 511.997H4252.36V155.283H3811.96ZM456.999 155.25C401.867 155.25 351.351 169.009 305.25 196.508L305.196 196.54L305.142 196.572C258.966 223.306 222.14 259.708 194.566 305.907C167.893 351.992 154.517 402.949 154.517 458.986V601.759L320.878 513.105L323.02 511.964H897.399V155.25H456.999Z" fill="white" stroke="white" stroke-width="19.4244"/>
<path d="M5749.86 25.1608V0.0896291H5929.49V25.1608H5853.96V227H5825.4V25.1608H5749.86ZM5957.85 227V0.0896291H5994.34L6067.97 188.6H6068.6L6141.59 0.0896291H6178.73V227H6151.43V40.394H6150.8C6146.78 52.242 6143.39 61.7627 6140.64 68.9561L6078.44 227H6056.54L5994.34 68.9561L5984.19 40.394H5983.55V227H5957.85Z" fill="black"/>
</svg>
